<?xml version="1.0" standalone="no"?>
 <!DOCTYPE svg PUBLIC "-//W3C//DTD SVG 1.1//EN" 
 "http://www.w3.org/Graphics/SVG/1.1/DTD/svg11.dtd"> 
<svg
  xmlns:svg="http://www.w3.org/2000/svg"
  xmlns="http://www.w3.org/2000/svg"
  xmlns:xlink="http://www.w3.org/1999/xlink"
  version="1.1"
  width="47.3964mm" height="22.8346mm" viewBox="0.0000 0.0000 47.3964 22.8346">
<title>SVG Image created as PIC16PS2Pedal_Schematics-B_Cu.svg date 2024/11/08 20:45:14 </title>
  <desc>Image generated by PCBNEW </desc>
<g style="fill:#000000; fill-opacity:1.0000;stroke:#000000; stroke-opacity:1.0000;
stroke-linecap:round; stroke-linejoin:round;"
 transform="translate(0 0) scale(1 1)">
</g>
<g style="fill:#000000; fill-opacity:1.0000; stroke:none;">
<circle cx="4.5633" cy="18.6382" r="0.4500" /> 
</g>
<g style="fill:#000000; fill-opacity:1.0000; stroke:none;">
<circle cx="2.0232" cy="18.6382" r="0.4500" /> 
</g>
<g style="fill:#000000; fill-opacity:1.0000; stroke:none;">
<circle cx="3.1782" cy="2.6382" r="0.4000" /> 
</g>
<g style="fill:#000000; fill-opacity:1.0000; stroke:none;">
<circle cx="5.7182" cy="2.6382" r="0.4000" /> 
</g>
<g style="fill:#000000; fill-opacity:1.0000; stroke:none;">
<circle cx="8.2583" cy="2.6382" r="0.4000" /> 
</g>
<g style="fill:#000000; fill-opacity:1.0000; stroke:none;">
<circle cx="10.7982" cy="2.6382" r="0.4000" /> 
</g>
<g style="fill:#000000; fill-opacity:1.0000; stroke:none;">
<circle cx="13.3382" cy="2.6382" r="0.4000" /> 
</g>
<g style="fill:#000000; fill-opacity:1.0000; stroke:none;">
<circle cx="15.8782" cy="2.6382" r="0.4000" /> 
</g>
<g style="fill:#000000; fill-opacity:1.0000; stroke:none;">
<circle cx="18.4183" cy="2.6382" r="0.4000" /> 
</g>
<g style="fill:#000000; fill-opacity:1.0000; stroke:none;">
<circle cx="20.9582" cy="2.6382" r="0.4000" /> 
</g>
<g style="fill:#000000; fill-opacity:1.0000; stroke:none;">
<circle cx="23.4982" cy="2.6382" r="0.4000" /> 
</g>
<g style="fill:#000000; fill-opacity:1.0000; stroke:none;">
<circle cx="23.4982" cy="10.2583" r="0.4000" /> 
</g>
<g style="fill:#000000; fill-opacity:1.0000; stroke:none;">
<circle cx="20.9582" cy="10.2583" r="0.4000" /> 
</g>
<g style="fill:#000000; fill-opacity:1.0000; stroke:none;">
<circle cx="18.4183" cy="10.2583" r="0.4000" /> 
</g>
<g style="fill:#000000; fill-opacity:1.0000; stroke:none;">
<circle cx="15.8782" cy="10.2583" r="0.4000" /> 
</g>
<g style="fill:#000000; fill-opacity:1.0000; stroke:none;">
<circle cx="13.3382" cy="10.2583" r="0.4000" /> 
</g>
<g style="fill:#000000; fill-opacity:1.0000; stroke:none;">
<circle cx="10.7982" cy="10.2583" r="0.4000" /> 
</g>
<g style="fill:#000000; fill-opacity:1.0000; stroke:none;">
<circle cx="8.2583" cy="10.2583" r="0.4000" /> 
</g>
<g style="fill:#000000; fill-opacity:1.0000; stroke:none;">
<circle cx="5.7182" cy="10.2583" r="0.4000" /> 
</g>
<g style="fill:#000000; fill-opacity:1.0000; stroke:none;">
<circle cx="3.1782" cy="10.2583" r="0.4000" /> 
</g>
<g style="fill:#000000; fill-opacity:1.0000; stroke:none;">
<circle cx="20.9883" cy="15.1382" r="0.4000" /> 
</g>
<g style="fill:#000000; fill-opacity:1.0000; stroke:none;">
<circle cx="28.6082" cy="15.1382" r="0.4000" /> 
</g>
<g style="fill:#000000; fill-opacity:1.0000; stroke:none;">
<circle cx="15.9882" cy="19.6382" r="0.4000" /> 
</g>
<g style="fill:#000000; fill-opacity:1.0000; stroke:none;">
<circle cx="23.6082" cy="19.6382" r="0.4000" /> 
</g>
<g style="fill:#000000; fill-opacity:1.0000; stroke:none;">
<circle cx="8.2982" cy="13.0183" r="0.4000" /> 
</g>
<g style="fill:#000000; fill-opacity:1.0000; stroke:none;">
<circle cx="8.2982" cy="20.6382" r="0.4000" /> 
</g>
<g style="fill:#000000; fill-opacity:1.0000; stroke:none;">
<circle cx="45.0682" cy="4.4082" r="0.3750" /> 
</g>
<g style="fill:#000000; fill-opacity:1.0000; stroke:none;">
<circle cx="43.7982" cy="3.1382" r="0.3750" /> 
</g>
<g style="fill:#000000; fill-opacity:1.0000; stroke:none;">
<circle cx="42.5282" cy="4.4082" r="0.3750" /> 
</g>
<g style="fill:#000000; fill-opacity:1.0000; stroke:none;">
<circle cx="35.5282" cy="5.6382" r="0.3750" /> 
</g>
<g style="fill:#000000; fill-opacity:1.0000; stroke:none;">
<circle cx="36.7982" cy="4.3682" r="0.3750" /> 
</g>
<g style="fill:#000000; fill-opacity:1.0000; stroke:none;">
<circle cx="38.0682" cy="5.6382" r="0.3750" /> 
</g>
<g style="fill:#000000; fill-opacity:1.0000; stroke:none;">
<circle cx="44.7982" cy="17.6382" r="0.5100" /> 
</g>
<g style="fill:#000000; fill-opacity:1.0000; stroke:none;">
<circle cx="42.2582" cy="17.6382" r="0.5100" /> 
</g>
<g style="fill:#000000; fill-opacity:1.0000; stroke:none;">
<circle cx="39.7182" cy="17.6382" r="0.5100" /> 
</g>
<g style="fill:#000000; fill-opacity:1.0000; stroke:none;">
<circle cx="37.1782" cy="17.6382" r="0.5100" /> 
</g>
<g style="fill:#000000; fill-opacity:1.0000; stroke:none;">
<circle cx="42.2582" cy="15.4782" r="0.5500" /> 
<path style="fill:none; 
stroke:#000000; stroke-width:0.2000; stroke-opacity:1; 
stroke-linecap:round; stroke-linejoin:round;fill:none"
d="M 0.2982,0.1382
47.2982,0.1382
47.2982,22.1382
0.2982,22.1382
Z" /> 
</g>
<g style="fill:#000000; fill-opacity:1.0000; stroke:none;">
<circle cx="4.5633" cy="18.6382" r="0.9000" /> 
<path style="fill:#000000; fill-opacity:1.0000; stroke:none;fill-rule:evenodd;"
d="M 1.1232,19.5382
1.1232,17.7383
2.9232,17.7383
2.9232,19.5382
Z" /> 
</g>
<g style="fill:#000000; fill-opacity:1.0000; stroke:none;">
<circle cx="3.1782" cy="2.6382" r="0.8000" /> 
<circle cx="5.7182" cy="2.6382" r="0.8000" /> 
<circle cx="8.2583" cy="2.6382" r="0.8000" /> 
<circle cx="10.7982" cy="2.6382" r="0.8000" /> 
<circle cx="13.3382" cy="2.6382" r="0.8000" /> 
<circle cx="15.8782" cy="2.6382" r="0.8000" /> 
<circle cx="18.4183" cy="2.6382" r="0.8000" /> 
<circle cx="20.9582" cy="2.6382" r="0.8000" /> 
<circle cx="23.4982" cy="2.6382" r="0.8000" /> 
<circle cx="23.4982" cy="10.2583" r="0.8000" /> 
<circle cx="20.9582" cy="10.2583" r="0.8000" /> 
<circle cx="18.4183" cy="10.2583" r="0.8000" /> 
<circle cx="15.8782" cy="10.2583" r="0.8000" /> 
<circle cx="13.3382" cy="10.2583" r="0.8000" /> 
<circle cx="10.7982" cy="10.2583" r="0.8000" /> 
<circle cx="8.2583" cy="10.2583" r="0.8000" /> 
<circle cx="5.7182" cy="10.2583" r="0.8000" /> 
<path style="fill:#000000; fill-opacity:1.0000; stroke:none;fill-rule:evenodd;"
d="M 3.9782,11.0582
2.3782,11.0582
2.3782,9.4582
3.9782,9.4582
Z" /> 
<circle cx="20.9883" cy="15.1382" r="0.8000" /> 
<circle cx="28.6082" cy="15.1382" r="0.8000" /> 
</g>
<g style="fill:#000000; fill-opacity:1.0000; stroke:none;">
<circle cx="15.9882" cy="19.6382" r="0.8000" /> 
</g>
<g style="fill:#000000; fill-opacity:1.0000; stroke:none;">
<circle cx="23.6082" cy="19.6382" r="0.8000" /> 
<circle cx="8.2982" cy="13.0183" r="0.8000" /> 
</g>
<g style="fill:#000000; fill-opacity:1.0000; stroke:none;">
<circle cx="8.2982" cy="20.6382" r="0.8000" /> 
<circle cx="45.0682" cy="4.4082" r="0.6500" /> 
</g>
<g style="fill:#000000; fill-opacity:1.0000; stroke:none;">
<circle cx="43.7982" cy="3.1382" r="0.6500" /> 
<path style="fill:#000000; fill-opacity:1.0000; stroke:none;fill-rule:evenodd;"
d="M 41.8783,5.0583
41.8783,3.7582
43.1782,3.7582
43.1782,5.0583
Z" /> 
<path style="fill:#000000; fill-opacity:1.0000; stroke:none;fill-rule:evenodd;"
d="M 34.8783,6.2882
34.8783,4.9882
36.1782,4.9882
36.1782,6.2882
Z" /> 
</g>
<g style="fill:#000000; fill-opacity:1.0000; stroke:none;">
<circle cx="36.7982" cy="4.3682" r="0.6500" /> 
</g>
<g style="fill:#000000; fill-opacity:1.0000; stroke:none;">
<circle cx="38.0682" cy="5.6382" r="0.6500" /> 
</g>
<g style="fill:none; 
stroke:#000000; stroke-width:1.7300; stroke-opacity:1; 
stroke-linecap:round; stroke-linejoin:round;">
<path d="M44.7982 17.7882
L44.7982 17.4883
" />
<path d="M42.2582 17.7882
L42.2582 17.4883
" />
<path d="M39.7182 17.7882
L39.7182 17.4883
" />
<path style="fill:#000000; fill-opacity:1.0000; stroke:none;fill-rule:evenodd;"
d="M 38.0433,18.6532
36.3132,18.6532
36.3132,16.6232
38.0433,16.6232
Z" /> 
</g>
<g style="fill:none; 
stroke:#000000; stroke-width:0.2000; stroke-opacity:1; 
stroke-linecap:round; stroke-linejoin:round;">
<path d="M39.7182 17.6382
L39.7182 19.7982
" />
<path d="M39.7182 19.7982
L37.7969 21.7196
" />
<path d="M37.7969 21.7196
L4.8796 21.7196
" />
<path d="M4.8796 21.7196
L4.5633 21.4032
" />
<path d="M4.5633 21.4032
L4.5633 18.6382
" />
<path d="M38.0682 5.6382
L38.6182 5.6382
" />
<path d="M44.6683 7.9282
L44.6683 14.7882
" />
<path d="M38.6182 5.6382
L38.6182 6.0239
" />
<path d="M38.6182 6.0239
L39.1326 6.5382
" />
<path d="M42.2582 17.1982
L42.2582 17.6382
" />
<path d="M39.1326 6.5382
L43.2782 6.5382
" />
<path d="M43.2782 6.5382
L44.6683 7.9282
" />
<path d="M44.6683 14.7882
L42.2582 17.1982
" />
<path d="M45.0682 4.4082
L45.0682 7.6382
" />
<path d="M45.0682 7.6382
L45.0682 17.3682
" />
<path d="M39.2982 6.1382
L43.5682 6.1382
" />
<path d="M23.4982 10.2583
L23.4982 17.3382
" />
<path d="M23.4982 17.3382
L24.9982 18.8382
" />
<path d="M30.4983 4.8069
L32.9669 2.3382
" />
<path d="M24.9982 18.8382
L27.9669 18.8382
" />
<path d="M27.9669 18.8382
L30.4983 16.3069
" />
<path d="M36.6774 2.3382
L39.0182 4.6791
" />
<path d="M30.4983 16.3069
L30.4983 4.8069
" />
<path d="M32.9669 2.3382
L36.6774 2.3382
" />
<path d="M39.0182 5.8582
L39.2982 6.1382
" />
<path d="M39.0182 4.6791
L39.0182 5.8582
" />
<path d="M8.7782 21.2383
L8.6783 21.1382
" />
<path d="M8.6783 21.1382
L8.2982 20.7583
" />
<path d="M37.1782 17.6382
L37.1782 17.5182
" />
<path d="M20.9883 15.1382
L20.9883 10.2882
" />
<path d="M10.7982 10.2583
L10.7982 5.1782
" />
<path d="M10.7982 5.1782
L13.3382 2.6382
" />
<path d="M4.5633 18.6382
L8.7982 18.6382
" />
<path d="M8.7982 18.6382
L10.7982 16.6382
" />
<path d="M10.7982 16.6382
L10.7982 10.2583
" />
<path d="M8.2982 13.1382
L8.2982 10.2982
" />
<path d="M3.7982 13.1382
L8.2982 13.1382
" />
<path d="M2.0232 18.6382
L2.0232 14.9132
" />
<path d="M2.0232 14.9132
L3.7982 13.1382
" />
<path d="M15.9882 10.3682
L15.9882 19.6382
" />
<path d="M36.7982 4.3682
L35.5682 3.1382
" />
<path d="M33.2982 3.1382
L31.2982 5.1383
" />
<path d="M31.2982 16.6382
L28.2982 19.6382
" />
<path d="M35.5682 3.1382
L33.2982 3.1382
" />
<path d="M31.2982 5.1383
L31.2982 16.6382
" />
<path d="M28.2982 19.6382
L23.6082 19.6382
" />
<path d="M13.3382 10.2583
L16.9582 6.6382
" />
<path d="M16.9582 6.6382
L21.7982 6.6382
" />
<path d="M21.7982 6.6382
L23.4982 4.9383
" />
<path d="M23.4982 4.9383
L23.4982 2.6382
" />
<path d="M37.1782 17.6382
L37.1782 19.6126
" />
<path d="M37.1782 19.6126
L35.5526 21.2383
" />
<path d="M8.7782 21.2383
L11.6982 21.2383
" />
<path d="M35.5526 21.2383
L8.7782 21.2383
" />
<path d="M11.6982 21.2383
L13.3382 19.5983
" />
<path d="M13.3382 19.5983
L13.3382 10.2583
" />
<path d="M24.7982 18.0726
L24.7982 2.6382
" />
<path d="M27.8012 18.4383
L25.1639 18.4383
" />
<path d="M30.0983 16.1412
L27.8012 18.4383
" />
<path d="M25.1639 18.4383
L24.7982 18.0726
" />
<path d="M30.0983 4.6412
L30.0983 16.1412
" />
<path d="M32.8012 1.9382
L30.0983 4.6412
" />
<path d="M24.7982 2.6382
L23.4982 2.6382
" />
<path d="M41.5983 1.9382
L32.8012 1.9382
" />
<path d="M42.5282 2.8682
L41.5983 1.9382
" />
<path d="M42.5282 4.4082
L42.5282 2.8682
" />
<path d="M43.5682 6.1382
L45.0682 7.6382
" />
<path d="M37.1782 15.3382
L37.1782 17.6382
" />
<path d="M44.2682 14.2482
L38.2682 14.2482
" />
<path d="M38.2682 14.2482
L37.1782 15.3382
" />
<path d="M44.2682 8.0939
L44.2682 14.2482
" />
<path d="M43.1126 6.9383
L44.2682 8.0939
" />
<path d="M36.8282 6.9383
L43.1126 6.9383
" />
<path d="M35.5282 5.6382
L36.8282 6.9383
" />
<path d="M28.6082 15.1382
L29.6983 14.0482
" />
<path d="M29.6983 14.0482
L29.6983 4.4755
" />
<path d="M29.6983 4.4755
L32.6355 1.5382
" />
<path d="M32.6355 1.5382
L42.1983 1.5382
" />
<path d="M42.1983 1.5382
L43.7982 3.1382
" />
<path d="M18.4183 10.2583
L18.4183 16.1782
" />
<path d="M18.4183 16.1782
L20.7782 18.5382
" />
<path d="M30.8982 16.4726
L30.8982 4.9726
" />
<path d="M20.7782 18.5382
L24.0639 18.5382
" />
<path d="M33.1326 2.7382
L36.5118 2.7382
" />
<path d="M24.0639 18.5382
L24.7639 19.2383
" />
<path d="M24.7639 19.2383
L28.1326 19.2383
" />
<path d="M28.1326 19.2383
L30.8982 16.4726
" />
<path d="M30.8982 4.9726
L31.1326 4.7382
" />
<path d="M31.1326 4.7382
L33.1326 2.7382
" />
<path d="M36.5118 2.7382
L38.0682 4.2947
" />
<path d="M38.0682 4.2947
L38.0682 5.6382
" />
</g>
<g style="fill:#FFFFFF; fill-opacity:1.0000; stroke:none;">
<circle cx="4.5633" cy="18.6382" r="0.4500" /> 
</g>
<g style="fill:#FFFFFF; fill-opacity:1.0000; stroke:none;">
<circle cx="2.0232" cy="18.6382" r="0.4500" /> 
</g>
<g style="fill:#FFFFFF; fill-opacity:1.0000; stroke:none;">
<circle cx="3.1782" cy="2.6382" r="0.4000" /> 
</g>
<g style="fill:#FFFFFF; fill-opacity:1.0000; stroke:none;">
<circle cx="5.7182" cy="2.6382" r="0.4000" /> 
</g>
<g style="fill:#FFFFFF; fill-opacity:1.0000; stroke:none;">
<circle cx="8.2583" cy="2.6382" r="0.4000" /> 
</g>
<g style="fill:#FFFFFF; fill-opacity:1.0000; stroke:none;">
<circle cx="10.7982" cy="2.6382" r="0.4000" /> 
</g>
<g style="fill:#FFFFFF; fill-opacity:1.0000; stroke:none;">
<circle cx="13.3382" cy="2.6382" r="0.4000" /> 
</g>
<g style="fill:#FFFFFF; fill-opacity:1.0000; stroke:none;">
<circle cx="15.8782" cy="2.6382" r="0.4000" /> 
</g>
<g style="fill:#FFFFFF; fill-opacity:1.0000; stroke:none;">
<circle cx="18.4183" cy="2.6382" r="0.4000" /> 
</g>
<g style="fill:#FFFFFF; fill-opacity:1.0000; stroke:none;">
<circle cx="20.9582" cy="2.6382" r="0.4000" /> 
</g>
<g style="fill:#FFFFFF; fill-opacity:1.0000; stroke:none;">
<circle cx="23.4982" cy="2.6382" r="0.4000" /> 
</g>
<g style="fill:#FFFFFF; fill-opacity:1.0000; stroke:none;">
<circle cx="23.4982" cy="10.2583" r="0.4000" /> 
</g>
<g style="fill:#FFFFFF; fill-opacity:1.0000; stroke:none;">
<circle cx="20.9582" cy="10.2583" r="0.4000" /> 
</g>
<g style="fill:#FFFFFF; fill-opacity:1.0000; stroke:none;">
<circle cx="18.4183" cy="10.2583" r="0.4000" /> 
</g>
<g style="fill:#FFFFFF; fill-opacity:1.0000; stroke:none;">
<circle cx="15.8782" cy="10.2583" r="0.4000" /> 
</g>
<g style="fill:#FFFFFF; fill-opacity:1.0000; stroke:none;">
<circle cx="13.3382" cy="10.2583" r="0.4000" /> 
</g>
<g style="fill:#FFFFFF; fill-opacity:1.0000; stroke:none;">
<circle cx="10.7982" cy="10.2583" r="0.4000" /> 
</g>
<g style="fill:#FFFFFF; fill-opacity:1.0000; stroke:none;">
<circle cx="8.2583" cy="10.2583" r="0.4000" /> 
</g>
<g style="fill:#FFFFFF; fill-opacity:1.0000; stroke:none;">
<circle cx="5.7182" cy="10.2583" r="0.4000" /> 
</g>
<g style="fill:#FFFFFF; fill-opacity:1.0000; stroke:none;">
<circle cx="3.1782" cy="10.2583" r="0.4000" /> 
</g>
<g style="fill:#FFFFFF; fill-opacity:1.0000; stroke:none;">
<circle cx="20.9883" cy="15.1382" r="0.4000" /> 
</g>
<g style="fill:#FFFFFF; fill-opacity:1.0000; stroke:none;">
<circle cx="28.6082" cy="15.1382" r="0.4000" /> 
</g>
<g style="fill:#FFFFFF; fill-opacity:1.0000; stroke:none;">
<circle cx="15.9882" cy="19.6382" r="0.4000" /> 
</g>
<g style="fill:#FFFFFF; fill-opacity:1.0000; stroke:none;">
<circle cx="23.6082" cy="19.6382" r="0.4000" /> 
</g>
<g style="fill:#FFFFFF; fill-opacity:1.0000; stroke:none;">
<circle cx="8.2982" cy="13.0183" r="0.4000" /> 
</g>
<g style="fill:#FFFFFF; fill-opacity:1.0000; stroke:none;">
<circle cx="8.2982" cy="20.6382" r="0.4000" /> 
</g>
<g style="fill:#FFFFFF; fill-opacity:1.0000; stroke:none;">
<circle cx="45.0682" cy="4.4082" r="0.3750" /> 
</g>
<g style="fill:#FFFFFF; fill-opacity:1.0000; stroke:none;">
<circle cx="43.7982" cy="3.1382" r="0.3750" /> 
</g>
<g style="fill:#FFFFFF; fill-opacity:1.0000; stroke:none;">
<circle cx="42.5282" cy="4.4082" r="0.3750" /> 
</g>
<g style="fill:#FFFFFF; fill-opacity:1.0000; stroke:none;">
<circle cx="35.5282" cy="5.6382" r="0.3750" /> 
</g>
<g style="fill:#FFFFFF; fill-opacity:1.0000; stroke:none;">
<circle cx="36.7982" cy="4.3682" r="0.3750" /> 
</g>
<g style="fill:#FFFFFF; fill-opacity:1.0000; stroke:none;">
<circle cx="38.0682" cy="5.6382" r="0.3750" /> 
</g>
<g style="fill:#FFFFFF; fill-opacity:1.0000; stroke:none;">
<circle cx="44.7982" cy="17.6382" r="0.5100" /> 
</g>
<g style="fill:#FFFFFF; fill-opacity:1.0000; stroke:none;">
<circle cx="42.2582" cy="17.6382" r="0.5100" /> 
</g>
<g style="fill:#FFFFFF; fill-opacity:1.0000; stroke:none;">
<circle cx="39.7182" cy="17.6382" r="0.5100" /> 
</g>
<g style="fill:#FFFFFF; fill-opacity:1.0000; stroke:none;">
<circle cx="37.1782" cy="17.6382" r="0.5100" /> 
</g>
<g style="fill:#FFFFFF; fill-opacity:1.0000; stroke:none;">
<circle cx="42.2582" cy="15.4782" r="0.5500" /> 
</g> 
</svg>
